<svg id="Fremad" xmlns="http://www.w3.org/2000/svg" viewBox="0 0 201 201.08">
  <circle cx="100.5" cy="100.58" r="100" fill="#feca39" stroke="#1d1d1b" stroke-miterlimit="10"/>
  <polygon points="100.48 1 186.02 150.11 14.98 150.09 100.48 1" fill="none" stroke="#1d1d1b" stroke-miterlimit="10"/>
  <polygon points="100.48 1 114.75 25.88 14.98 150.09 100.48 1" fill="#1d1d1b"/>
  <polygon points="128.33 49.55 143.24 75.55 14.98 150.09 128.33 49.55" fill="#1d1d1b"/>
  <polygon points="156.57 98.78 171.11 124.12 14.98 150.09 156.57 98.78" fill="#1d1d1b"/>
  <g>
    <path d="M356.83,465.62a.82.82,0,0,1,.74.86.85.85,0,0,1-.74.9h-6.11a.9.9,0,0,1,0-1.76Z" transform="translate(-299.5 -299.42)" fill="#1d1d1b"/>
    <path d="M372.74,475.18s0,.74-1,.74-1-.74-1-.74V457.07l-1.06,1.28a.54.54,0,0,1-.48.23,1,1,0,0,1-1.06-.93,1.05,1.05,0,0,1,.26-.58l2.69-3.16a1,1,0,0,1,.8-.39c.51,0,.77.26.77.67Z" transform="translate(-299.5 -299.42)" fill="#1d1d1b"/>
    <path d="M388.74,465.23a.62.62,0,0,1,.67.67c0,.48-2,3.3-5.47,3.3-5,0-7.78-3.2-7.78-7.26a8.39,8.39,0,0,1,8.32-8.61c5.18,0,8.22,3.49,8.22,10.21,0,8-4.38,12.7-9.4,12.7-3.14,0-4.87-1.89-4.87-2.46a1,1,0,0,1,.93-1c.61,0,1,1.76,3.9,1.76,3.94,0,7.52-3.68,7.52-11.1,0-5.73-2.3-8.42-6.3-8.42-3.39,0-6.4,2.76-6.4,6.92,0,3.07,2.08,5.6,5.86,5.6C387.3,467.54,388,465.23,388.74,465.23Z" transform="translate(-299.5 -299.42)" fill="#1d1d1b"/>
    <path d="M411.2,467c.86-.41,1.12-1.09,1.6-1.09s.77.42.77,1.09-.93,1.44-2.37,1.79v6.4s0,.74-1,.74-1-.74-1-.74v-6.24c-2.75,0-6.27-.6-9.86-.6a15.4,15.4,0,0,0-3.16.54c-.32,0-.74-.54-.74-.74s.13-.35.48-.6a14.58,14.58,0,0,0,5.31-10.85,7.54,7.54,0,0,0-.45-2.63c0-.35.45-.54,1-.54.68,0,1.41.93,1.41,3.17a15.29,15.29,0,0,1-3.9,9.92,1.63,1.63,0,0,1,.38,0c3.55,0,6.88.6,9.57.67v-13s0-.74,1-.74,1,.74,1,.74Z" transform="translate(-299.5 -299.42)" fill="#1d1d1b"/>
    <path d="M420.58,475.92c-.49,0-.84-.19-.84-.67,0-4.77,3.68-14.88,8.13-19.36-2.18-.13-5.21-.67-7.33-.67-2.46,0-2.46,1-3,1s-.45-.67-.45-.93c0-.48.61-1.76,3.49-1.76,2.46,0,6.39.83,8.44.83,1,0,1.79-.83,2.31-.83s.67.42.67.9-1.83,1.37-2.27,1.76c-4.58,4.09-8.13,14.33-8.13,19.07C421.6,475.82,421.05,475.92,420.58,475.92Z" transform="translate(-299.5 -299.42)" fill="#1d1d1b"/>
    <path d="M449.28,465.62a.81.81,0,0,1,.73.86.84.84,0,0,1-.73.9h-6.11a.89.89,0,0,1,0-1.76Z" transform="translate(-299.5 -299.42)" fill="#1d1d1b"/>
  </g>
  <g>
    <path d="M317.08,424.41l2.45,3.44a1,1,0,0,1,.14,1.37.7.7,0,0,1-.94.35.89.89,0,0,1-.31-.29l-12.05-17.13c-.2-.3-.44-.66-.2-1.07s.65-.37,1-.33l20.9,1.62a.89.89,0,0,1,.41.13.69.69,0,0,1,.17,1,1,1,0,0,1-1,.53l-4.44-.37ZM316,422.88l5.38-9.39-12.75-1Z" transform="translate(-299.5 -299.42)" fill="#1d1d1b"/>
    <path d="M328.14,405.12l2.46,3.44a1,1,0,0,1,.13,1.37.69.69,0,0,1-.94.34.8.8,0,0,1-.31-.29l-12.05-17.12a1,1,0,0,1-.19-1.08c.23-.41.65-.36,1-.32l20.91,1.62a.92.92,0,0,1,.4.12.7.7,0,0,1,.18,1,1,1,0,0,1-1,.53l-4.43-.37Zm-1.07-1.54,5.38-9.38-12.76-1Z" transform="translate(-299.5 -299.42)" fill="#1d1d1b"/>
    <path d="M348.33,375.9c.11-.19.52-.07.68,0,.62.35.38,1.46,0,2.08-1.58,2.74-6.63,1.21-10,3.77a17.12,17.12,0,0,1-.95,1.92.79.79,0,0,1-1.19.39c-.53-.3-.51-.52-.32-.85,2.34-4.08,2.9-8.59-.77-10.69-3.36-1.93-5.4.29-7.41,3.79L326.85,379l15.8,9.06c.27.16.37.44,0,1.08s-.62.68-.92.5L325,380a.5.5,0,0,1-.2-.74l2.2-3.83c2.38-4.16,5.6-6.93,9.68-4.59,3.16,1.81,3.85,5.23,3.05,8.69,3.17-1.73,7-.68,8.3-3A4.43,4.43,0,0,0,348.33,375.9Z" transform="translate(-299.5 -299.42)" fill="#1d1d1b"/>
    <path d="M334.61,363.23c-.23-.12-.36-.46,0-1s.71-.67.93-.54l9.27,5.32,6.63-11.55-9.28-5.32c-.22-.12-.36-.46,0-1s.71-.67.93-.54l16.77,9.62c.22.12.37.43,0,1.07s-.7.64-.92.51l-6-3.47-6.62,11.54,6,3.48c.22.12.37.43,0,1.07s-.7.64-.92.51Z" transform="translate(-299.5 -299.42)" fill="#1d1d1b"/>
    <path d="M353.68,330c-.25-.14-.38-.37,0-1s.66-.58.85-.46l11.52,6.6c3.14,1.8,4.3,6.34,1.66,10.95s-7.12,5.84-10.25,4l-11.52-6.6c-.22-.13-.33-.45,0-1s.66-.69.91-.55l11.46,6.58c2.5,1.43,5.72.7,8-3.24s1.38-7.29-1.12-8.73Z" transform="translate(-299.5 -299.42)" fill="#1d1d1b"/>
    <path d="M376.81,326.94c1.82-3.16,1.58-6.1-.55-7.32-4.72-2.71-9.14,9.44-14.78,6.2-2.86-1.64-3.4-5.26-1.26-9,1.77-3.09,4.53-4.3,6.36-3.25a2.13,2.13,0,0,1,1.05,2.48c-.24.42-.51.44-.71.33s-.2-.67-1.15-1.21c-1.19-.69-2.9.18-4.19,2.43s-1.65,5.25.52,6.49c4.63,2.66,9-9.5,14.82-6.18,2.84,1.63,3.85,5.38,1.34,9.77-2.21,3.86-5,5.67-7.52,4.24-1.59-.91-1.69-2.33-1.44-2.77a.58.58,0,0,1,.78-.26c.33.19.49.94,1.24,1.37C373,331.25,375.08,330,376.81,326.94Z" transform="translate(-299.5 -299.42)" fill="#1d1d1b"/>
  </g>
  <g>
    <path d="M419.35,322.3c-.22.12-.56.1-.93-.54s-.19-.92,0-1l16.73-9.61a.52.52,0,0,1,.75.21l5.92,10.32a.77.77,0,0,1-.42.87.8.8,0,0,1-1-.06l-5.28-9.21-8.86,5.08,4.21,7.32a.79.79,0,0,1-.45.89.8.8,0,0,1-1-.06l-4.2-7.33Z" transform="translate(-299.5 -299.42)" fill="#1d1d1b"/>
    <path d="M435.68,348.5c.11.19-.21.48-.37.58-.61.35-1.46-.42-1.81-1-1.58-2.75,2.3-6.34,1.8-10.55a17.3,17.3,0,0,1-1.17-1.8.79.79,0,0,1,.26-1.22c.52-.3.7-.18.89.15,2.34,4.08,6,6.84,9.62,4.74,3.36-1.93,2.48-4.82.47-8.31l-1.53-2.67-15.79,9.06c-.28.16-.57.11-.93-.53s-.28-.87,0-1.05l16.74-9.6a.5.5,0,0,1,.74.2l2.2,3.83c2.39,4.16,3.15,8.33-.92,10.67-3.17,1.82-6.47.69-9-1.74-.11,3.6-2.94,6.37-1.64,8.65A3.94,3.94,0,0,0,435.68,348.5Z" transform="translate(-299.5 -299.42)" fill="#1d1d1b"/>
    <path d="M444.31,363.54a.84.84,0,0,1-.45.89.8.8,0,0,1-1-.06l-6.29-11a.54.54,0,0,1,.21-.75l16.73-9.6a.51.51,0,0,1,.74.2l5.91,10.3a.77.77,0,0,1-.42.87.85.85,0,0,1-1,0l-5.27-9.19-8.52,4.89,4.44,7.74a.85.85,0,0,1-.48.9.79.79,0,0,1-1-.05l-4.44-7.75-4.81,2.76Z" transform="translate(-299.5 -299.42)" fill="#1d1d1b"/>
    <path d="M451.16,377.28l9.3-15.29-13.8,7.91c-.27.16-.53.16-.88-.45s-.22-.84.06-1l16.73-9.61c.31-.17.66.07.87.43a1,1,0,0,1,.12,1L453.38,377h19.78a.94.94,0,0,1,.73.5c.19.34.23.72-.05.88L457,388c-.3.17-.58.07-.91-.51s-.32-.89,0-1.08l13.6-7.8-17.9-.14a.74.74,0,0,1-.72-.36A.76.76,0,0,1,451.16,377.28Z" transform="translate(-299.5 -299.42)" fill="#1d1d1b"/>
    <path d="M464.48,392.73l-4.2.38c-.63.07-.94,0-1.25-.57a.68.68,0,0,1,.17-1,.89.89,0,0,1,.41-.13l20.87-1.75c.35,0,.78-.05,1,.37s0,.75-.24,1.06l-12,17.22a.8.8,0,0,1-.31.29.7.7,0,0,1-.94-.34,1,1,0,0,1,.05-1.14l2.56-3.64Zm1.87-.15,5.39,9.38,7.34-10.48Z" transform="translate(-299.5 -299.42)" fill="#1d1d1b"/>
    <path d="M470.78,413a.53.53,0,0,1,.2-.75l16.74-9.6a.5.5,0,0,1,.74.2l2.61,4.55c3.47,6.05,3.81,11.8-2.6,15.48-4.91,2.81-10.53,2.6-14.75-4.75Zm4.36,4.32c3.69,6.44,8.16,6.38,12.41,3.95,5.47-3.14,5.21-7.64,2.1-13.05l-2-3.44-14.85,8.51Z" transform="translate(-299.5 -299.42)" fill="#1d1d1b"/>
  </g>
</svg>