<?xml version="1.0" encoding="utf-8"?>
<!-- Generator: Adobe Illustrator 26.0.1, SVG Export Plug-In . SVG Version: 6.00 Build 0)  -->
<svg version="1.1" id="Layer_1" xmlns="http://www.w3.org/2000/svg" xmlns:xlink="http://www.w3.org/1999/xlink" x="0px" y="0px"
	 viewBox="0 0 595.3 681" style="enable-background:new 0 0 595.3 681;" xml:space="preserve">
<style type="text/css">
	.st0{clip-path:url(#SVGID_00000026129925231859098480000003219631081665834930_);fill:#00529C;}
	.st1{clip-path:url(#SVGID_00000115514385458596456450000016581157558798213054_);}
	.st2{clip-path:url(#SVGID_00000014592158660922460810000005003989497267831229_);fill:#00529C;}
	.st3{clip-path:url(#SVGID_00000010287492063627994560000010205460784567478713_);fill:#00529C;}
	.st4{clip-path:url(#SVGID_00000120545178368119252290000004948321779163072958_);fill:#00529C;}
	.st5{clip-path:url(#SVGID_00000096753201079436226010000011678704949457114010_);fill:#00529C;}
	.st6{clip-path:url(#SVGID_00000112595054651245407710000006911931715147406522_);fill:#00529C;}
	.st7{clip-path:url(#SVGID_00000090288887129267270430000004761684134532008110_);fill:#00529C;}
	.st8{clip-path:url(#SVGID_00000171708159566387967390000014268751229982209175_);fill:#FFFFFF;}
	
		.st9{clip-path:url(#SVGID_00000035528278362901257830000002545301973659326593_);fill:none;stroke:#0256A4;stroke-width:8.539;stroke-linecap:round;}
	.st10{clip-path:url(#SVGID_00000167385781105199427500000008994225801822437762_);}
	.st11{clip-path:url(#SVGID_00000066475215455802693680000017276381098653720229_);fill:#0256A4;stroke:#0256A4;}
	.st12{clip-path:url(#SVGID_00000016769498015454956540000007442925413136507019_);fill:none;stroke:#0256A4;stroke-width:8.539;}
	.st13{clip-path:url(#SVGID_00000091709943270105980080000015223668245666247569_);fill:#FFFFFF;}
	.st14{clip-path:url(#SVGID_00000070821077057343738580000015053416526005540739_);fill:#FFFFFF;}
	.st15{clip-path:url(#SVGID_00000088846961487862538360000004502652214699276221_);fill:#FFFFFF;}
	.st16{clip-path:url(#SVGID_00000155121558967212596990000002468751387532633998_);fill:#FFFFFF;}
	.st17{clip-path:url(#SVGID_00000052796057452082201540000007706688072499375000_);fill:#FFFFFF;}
	.st18{clip-path:url(#SVGID_00000096032535819969701230000003749652941074968967_);fill:#FFFFFF;}
	.st19{clip-path:url(#SVGID_00000139259065815140944070000016806477280285781951_);fill:#FFFFFF;}
	.st20{clip-path:url(#SVGID_00000150821907559446720910000005612673538385866393_);fill:#FFFFFF;}
	.st21{clip-path:url(#SVGID_00000009554724102988947320000007979311303566311574_);fill:#FFFFFF;}
	.st22{clip-path:url(#SVGID_00000039092576394337505480000000039041915362166438_);fill:#0256A4;}
	.st23{clip-path:url(#SVGID_00000084532504552529694770000007979359042874996926_);fill:#00529C;}
	.st24{clip-path:url(#SVGID_00000076564288292239426970000001977278892335149460_);fill:#0256A4;}
	.st25{clip-path:url(#SVGID_00000093144924445034099600000002286539871952829118_);fill:#0256A4;}
	
		.st26{clip-path:url(#SVGID_00000132783418804866816290000010305635636684905639_);fill-rule:evenodd;clip-rule:evenodd;fill:#0055A4;}
	.st27{clip-path:url(#SVGID_00000098220929510398281690000013130645399729905036_);}
	.st28{enable-background:new    ;}
	.st29{fill:#FFFFFF;}
	.st30{clip-path:url(#SVGID_00000134932149559429273410000000499550613305395883_);}
	.st31{clip-path:url(#SVGID_00000022561663801473296710000007040455109407532705_);}
	.st32{clip-path:url(#SVGID_00000169531014798376633090000003937956189577705911_);}
	.st33{fill:#0256A4;}
</style>
<g>
	<g>
		<g>
			<defs>
				<rect id="SVGID_1_" y="-60.1" width="595" height="841"/>
			</defs>
			<clipPath id="SVGID_00000071519746391005545730000005460706380442602648_">
				<use xlink:href="#SVGID_1_"  style="overflow:visible;"/>
			</clipPath>
			<polygon style="clip-path:url(#SVGID_00000071519746391005545730000005460706380442602648_);fill:#00529C;" points="180.4,481.3 
				205.4,481.3 205.4,487.1 187.8,487.1 187.8,491.6 204.6,491.6 204.6,497.2 187.8,497.2 187.8,505.5 180.4,505.5 			"/>
		</g>
	</g>
	<g>
		<g>
			<defs>
				<rect id="SVGID_00000133511495993074508390000011014925467544319907_" y="-61" width="595.3" height="841.9"/>
			</defs>
			<clipPath id="SVGID_00000171699539444368281460000010989098959613435044_">
				<use xlink:href="#SVGID_00000133511495993074508390000011014925467544319907_"  style="overflow:visible;"/>
			</clipPath>
			<g style="clip-path:url(#SVGID_00000171699539444368281460000010989098959613435044_);">
				<g>
					<defs>
						<rect id="SVGID_00000107569365065436776400000001131935785990829747_" y="-60.1" width="595" height="841"/>
					</defs>
					<clipPath id="SVGID_00000136377124796815555440000011293298285122594992_">
						<use xlink:href="#SVGID_00000107569365065436776400000001131935785990829747_"  style="overflow:visible;"/>
					</clipPath>
					<path style="clip-path:url(#SVGID_00000136377124796815555440000011293298285122594992_);fill:#00529C;" d="M216.9,494.7
						c0,3.5,0.7,4.8,4.2,4.8h9.4c3.5,0,4.2-1.3,4.2-4.8v-2.6c0-3-0.7-4.8-4.6-4.8h-8.6c-3.9,0-4.6,1.8-4.6,4.8V494.7z M209.3,489.8
						c0-7.1,3.9-8.7,10.6-8.7h11.8c6.6,0,10.6,1.7,10.6,8.7v7.2c0,7.1-3.9,8.7-10.6,8.7h-11.8c-6.6,0-10.6-1.7-10.6-8.7V489.8z"/>
				</g>
				<g>
					<defs>
						<rect id="SVGID_00000076594647435360297020000012282440835199959703_" y="-60.1" width="595" height="841"/>
					</defs>
					<clipPath id="SVGID_00000038395862500010393200000015682969300082328964_">
						<use xlink:href="#SVGID_00000076594647435360297020000012282440835199959703_"  style="overflow:visible;"/>
					</clipPath>
					<path style="clip-path:url(#SVGID_00000038395862500010393200000015682969300082328964_);fill:#00529C;" d="M254.3,499.3h13
						c3.1,0,4.4-0.9,4.4-4.3v-3.3c0-3.4-1.2-4.3-4.4-4.3h-13L254.3,499.3L254.3,499.3z M246.9,481.3h22.2c7.4,0,9.9,2.4,9.9,8.4v7.3
						c0,6-2.6,8.4-9.9,8.4h-22.2L246.9,481.3L246.9,481.3z"/>
				</g>
				<g>
					<defs>
						<rect id="SVGID_00000106833119666948787190000007881237246120380079_" y="-60.1" width="595" height="841"/>
					</defs>
					<clipPath id="SVGID_00000060720702056925083720000008520981524638269832_">
						<use xlink:href="#SVGID_00000106833119666948787190000007881237246120380079_"  style="overflow:visible;"/>
					</clipPath>
					<path style="clip-path:url(#SVGID_00000060720702056925083720000008520981524638269832_);fill:#00529C;" d="M290.8,499.7H304
						c1.6,0,2.6-0.4,2.6-1.8c0-1.6-1.1-2-2.6-2h-13.2V499.7z M290.8,490.9h13c1.4,0,2.2-0.5,2.2-1.9c0-1.4-0.8-1.9-2.2-1.9h-13
						V490.9z M283.5,481.3h21.2c5.9,0,8.7,1.6,8.7,6.3c0,4.1-1.5,4.9-3.5,5.5v0.1c3.2,0.4,4.4,2.1,4.4,5.8c0,5.3-3.1,6.4-7.3,6.4
						h-23.4V481.3z"/>
				</g>
				<g>
					<defs>
						<rect id="SVGID_00000035530443488909147980000003824618010574521224_" y="-60.1" width="595" height="841"/>
					</defs>
					<clipPath id="SVGID_00000150078721276711904410000000460707281919486601_">
						<use xlink:href="#SVGID_00000035530443488909147980000003824618010574521224_"  style="overflow:visible;"/>
					</clipPath>
					<path style="clip-path:url(#SVGID_00000150078721276711904410000000460707281919486601_);fill:#00529C;" d="M325.6,494.7
						c0,3.5,0.7,4.8,4.2,4.8h9.4c3.5,0,4.2-1.3,4.2-4.8v-2.6c0-3-0.7-4.8-4.6-4.8h-8.6c-3.9,0-4.6,1.8-4.6,4.8L325.6,494.7
						L325.6,494.7z M318.1,489.8c0-7.1,3.9-8.7,10.6-8.7h11.8c6.6,0,10.6,1.7,10.6,8.7v7.2c0,7.1-3.9,8.7-10.6,8.7h-11.8
						c-6.6,0-10.6-1.7-10.6-8.7V489.8z"/>
				</g>
				<g>
					<defs>
						<rect id="SVGID_00000082362075303470753880000002335160054382388143_" y="-60.1" width="595" height="841"/>
					</defs>
					<clipPath id="SVGID_00000062183170305965120700000018057561296562422681_">
						<use xlink:href="#SVGID_00000082362075303470753880000002335160054382388143_"  style="overflow:visible;"/>
					</clipPath>
					<polygon style="clip-path:url(#SVGID_00000062183170305965120700000018057561296562422681_);fill:#00529C;" points="
						355.4,481.3 362.8,481.3 362.8,499.3 379.3,499.3 379.3,505.5 355.4,505.5 					"/>
				</g>
				<g>
					<defs>
						<rect id="SVGID_00000167392008355506338440000017321117577149524891_" y="-60.1" width="595" height="841"/>
					</defs>
					<clipPath id="SVGID_00000160885309615543067750000009947345394575683263_">
						<use xlink:href="#SVGID_00000167392008355506338440000017321117577149524891_"  style="overflow:visible;"/>
					</clipPath>
					<path style="clip-path:url(#SVGID_00000160885309615543067750000009947345394575683263_);fill:#00529C;" d="M390,499.3h13
						c3.1,0,4.4-0.9,4.4-4.3v-3.3c0-3.4-1.2-4.3-4.4-4.3h-13V499.3z M382.7,481.3h22.2c7.4,0,9.9,2.4,9.9,8.4v7.3
						c0,6-2.6,8.4-9.9,8.4h-22.2V481.3z"/>
				</g>
			</g>
		</g>
	</g>
	<g>
		<g>
			<defs>
				<rect id="SVGID_00000061439871371611066210000017047554224443924864_" x="3.7" y="3.9" width="578.6" height="674.1"/>
			</defs>
			<clipPath id="SVGID_00000093154686427032320980000010859550855041777280_">
				<use xlink:href="#SVGID_00000061439871371611066210000017047554224443924864_"  style="overflow:visible;"/>
			</clipPath>
			<path style="clip-path:url(#SVGID_00000093154686427032320980000010859550855041777280_);fill:#FFFFFF;" d="M558.1,11.1
				c0,0,18.2,92,18.2,196.4c0,330.4-282.7,463.2-282.7,463.2S10.9,537.9,10.9,207.5c0-104.4,18.2-196.4,18.2-196.4
				S558.1,11.1,558.1,11.1z"/>
		</g>
	</g>
	<g>
		<g>
			<defs>
				<rect id="SVGID_00000119838973556531441460000015524203889355197858_" x="3.4" y="3.5" width="578.6" height="674.1"/>
			</defs>
			<clipPath id="SVGID_00000078010425500061635450000011628861698150751667_">
				<use xlink:href="#SVGID_00000119838973556531441460000015524203889355197858_"  style="overflow:visible;"/>
			</clipPath>
			
				<path style="clip-path:url(#SVGID_00000078010425500061635450000011628861698150751667_);fill:none;stroke:#0256A4;stroke-width:8.539;stroke-linecap:round;" d="
				M557.8,10.7c0,0,18.2,92,18.2,196.4c0,330.4-282.7,463.2-282.7,463.2S10.6,537.5,10.6,207.1c0-104.4,18.2-196.4,18.2-196.4
				L557.8,10.7L557.8,10.7z"/>
		</g>
	</g>
	<g>
		<g>
			<defs>
				<rect id="SVGID_00000183238951761198377990000008891664690814653072_" y="-61" width="595.3" height="841.9"/>
			</defs>
			<clipPath id="SVGID_00000137834552054889059140000009661605228724326328_">
				<use xlink:href="#SVGID_00000183238951761198377990000008891664690814653072_"  style="overflow:visible;"/>
			</clipPath>
			<g style="clip-path:url(#SVGID_00000137834552054889059140000009661605228724326328_);">
				<g>
					<defs>
						<rect id="SVGID_00000003827042292847486320000001757530860164875437_" y="-60.1" width="595" height="841"/>
					</defs>
					<clipPath id="SVGID_00000023263057613388778710000006196669173382860451_">
						<use xlink:href="#SVGID_00000003827042292847486320000001757530860164875437_"  style="overflow:visible;"/>
					</clipPath>
					<path style="clip-path:url(#SVGID_00000023263057613388778710000006196669173382860451_);fill:#0256A4;stroke:#0256A4;" d="
						M533.9,109.2c-4.6-40.4-11.1-74-11.1-74H293.3H63.8c0,0-6.5,33.6-11.1,74H533.9z"/>
				</g>
				<g>
					<defs>
						<rect id="SVGID_00000085941508456328735420000002580861745823378839_" y="-60.1" width="595" height="841"/>
					</defs>
					<clipPath id="SVGID_00000080897809750161840520000000012277172898597504_">
						<use xlink:href="#SVGID_00000085941508456328735420000002580861745823378839_"  style="overflow:visible;"/>
					</clipPath>
					
						<path style="clip-path:url(#SVGID_00000080897809750161840520000000012277172898597504_);fill:none;stroke:#0256A4;stroke-width:8.539;" d="
						M533.9,109.2c-4.6-40.4-11.1-74-11.1-74H293.3H63.8c0,0-6.5,33.6-11.1,74H533.9z M50.6,129.1C49.1,145.8,48,163,48,178.8
						c0,321.7,245.3,457.5,245.3,457.5s245.3-135.8,245.3-457.5c0-15.9-1-33-2.6-49.7H50.6z"/>
				</g>
				<g>
					<defs>
						<rect id="SVGID_00000095338032358307058710000008426887107516600510_" y="-60.1" width="595" height="841"/>
					</defs>
					<clipPath id="SVGID_00000134959062695525398240000008228318313988771750_">
						<use xlink:href="#SVGID_00000095338032358307058710000008426887107516600510_"  style="overflow:visible;"/>
					</clipPath>
					<polygon style="clip-path:url(#SVGID_00000134959062695525398240000008228318313988771750_);fill:#FFFFFF;" points="92.5,51.9 
						103.1,51.9 103.1,66.6 108,66.6 121.3,51.9 135.6,51.9 117,71.5 137.8,92.1 122.9,92.1 107.7,76.6 103.1,76.6 103.1,92.1 
						92.5,92.1 					"/>
				</g>
				<g>
					<defs>
						<rect id="SVGID_00000181076466981574938800000005584184666730206601_" y="-60.1" width="595" height="841"/>
					</defs>
					<clipPath id="SVGID_00000104682285412229551270000011293634296303866558_">
						<use xlink:href="#SVGID_00000181076466981574938800000005584184666730206601_"  style="overflow:visible;"/>
					</clipPath>
					<path style="clip-path:url(#SVGID_00000104682285412229551270000011293634296303866558_);fill:#FFFFFF;" d="M152.8,74.1
						c0,5.8,1,8,6,8h13.5c5,0,6-2.2,6-8v-4.3c0-5-1-8-6.6-8h-12.3c-5.6,0-6.6,3.1-6.6,8V74.1z M142,66c0-11.8,5.6-14.5,15.1-14.5
						H174c9.5,0,15.1,2.8,15.1,14.5v12c0,11.8-5.6,14.5-15.1,14.5h-16.9c-9.5,0-15.1-2.8-15.1-14.5V66z"/>
				</g>
				<g>
					<defs>
						<rect id="SVGID_00000095331664798027599750000014923758616238325173_" y="-60.1" width="595" height="841"/>
					</defs>
					<clipPath id="SVGID_00000063590833760506755650000011496151950554075562_">
						<use xlink:href="#SVGID_00000095331664798027599750000014923758616238325173_"  style="overflow:visible;"/>
					</clipPath>
					<polygon style="clip-path:url(#SVGID_00000063590833760506755650000011496151950554075562_);fill:#FFFFFF;" points="
						199.1,51.9 209.6,51.9 209.6,81.7 233.3,81.7 233.3,92.1 199.1,92.1 					"/>
				</g>
				<g>
					<defs>
						<rect id="SVGID_00000045589306426069893120000005412906954847667840_" y="-60.1" width="595" height="841"/>
					</defs>
					<clipPath id="SVGID_00000116210357689255580030000003447747603680495754_">
						<use xlink:href="#SVGID_00000045589306426069893120000005412906954847667840_"  style="overflow:visible;"/>
					</clipPath>
					<path style="clip-path:url(#SVGID_00000116210357689255580030000003447747603680495754_);fill:#FFFFFF;" d="M249.7,81.7h18.7
						c4.5,0,6.3-1.5,6.3-7.2v-5.4c0-5.7-1.8-7.2-6.3-7.2h-18.7V81.7z M239.1,51.9h31.8c10.5,0,14.2,4,14.2,14v12.2
						c0,9.9-3.7,14-14.2,14h-31.8L239.1,51.9L239.1,51.9z"/>
				</g>
				<g>
					<defs>
						<rect id="SVGID_00000055692201681024935940000000308381456203400836_" y="-60.1" width="595" height="841"/>
					</defs>
					<clipPath id="SVGID_00000145033412402985020410000016633207569027728512_">
						<use xlink:href="#SVGID_00000055692201681024935940000000308381456203400836_"  style="overflow:visible;"/>
					</clipPath>
					
						<rect x="293.1" y="51.9" style="clip-path:url(#SVGID_00000145033412402985020410000016633207569027728512_);fill:#FFFFFF;" width="10.5" height="40.2"/>
				</g>
				<g>
					<defs>
						<rect id="SVGID_00000131346707823634022910000005923255227216003482_" y="-60.1" width="595" height="841"/>
					</defs>
					<clipPath id="SVGID_00000117643106547479231220000001033630052559100555_">
						<use xlink:href="#SVGID_00000131346707823634022910000005923255227216003482_"  style="overflow:visible;"/>
					</clipPath>
					<polygon style="clip-path:url(#SVGID_00000117643106547479231220000001033630052559100555_);fill:#FFFFFF;" points="
						311.2,51.9 327.6,51.9 347.4,81.1 347.5,81.1 347.5,51.9 358,51.9 358,92.1 341.7,92.1 321.9,62.9 321.8,62.9 321.8,92.1 
						311.2,92.1 					"/>
				</g>
				<g>
					<defs>
						<rect id="SVGID_00000148621818954185198050000003808372246848209848_" y="-60.1" width="595" height="841"/>
					</defs>
					<clipPath id="SVGID_00000169540188750931392120000012868652510010223278_">
						<use xlink:href="#SVGID_00000148621818954185198050000003808372246848209848_"  style="overflow:visible;"/>
					</clipPath>
					<path style="clip-path:url(#SVGID_00000169540188750931392120000012868652510010223278_);fill:#FFFFFF;" d="M366.3,66
						c0-11.8,5.6-14.5,15.1-14.5h15.9c12,0,13.6,5,13.6,12.9v1.3h-10.4c0-4-1.9-4.5-5.3-4.5h-11.4c-5.3,0-6.7,1.5-6.7,8.4v5
						c0,6.9,1.4,8.4,6.7,8.4h11.2c2.8,0,5.5-0.5,5.5-4.4v-1.2h-13.1V69h23.6v11.4c0,11.5-5.1,12.1-17,12.1h-12.7
						c-9.5,0-15.1-2.8-15.1-14.5L366.3,66L366.3,66z"/>
				</g>
				<g>
					<defs>
						<rect id="SVGID_00000054224452389233731620000016521265836557643193_" y="-60.1" width="595" height="841"/>
					</defs>
					<clipPath id="SVGID_00000061461256289387423930000005035346865124734357_">
						<use xlink:href="#SVGID_00000054224452389233731620000016521265836557643193_"  style="overflow:visible;"/>
					</clipPath>
					
						<rect x="443.8" y="51.9" style="clip-path:url(#SVGID_00000061461256289387423930000005035346865124734357_);fill:#FFFFFF;" width="10.5" height="40.2"/>
				</g>
				<g>
					<defs>
						<rect id="SVGID_00000023995980299924277040000002544802204351067794_" y="-60.1" width="595" height="841"/>
					</defs>
					<clipPath id="SVGID_00000088837200444421025700000005847813068154759814_">
						<use xlink:href="#SVGID_00000023995980299924277040000002544802204351067794_"  style="overflow:visible;"/>
					</clipPath>
					<polygon style="clip-path:url(#SVGID_00000088837200444421025700000005847813068154759814_);fill:#FFFFFF;" points="
						463.5,51.9 499.4,51.9 499.4,61.5 474,61.5 474,69 498.2,69 498.2,78.4 474,78.4 474,92.1 463.5,92.1 					"/>
				</g>
				<g>
					<defs>
						<rect id="SVGID_00000080919615593716281210000004420965565871587484_" y="-60.1" width="595" height="841"/>
					</defs>
					<clipPath id="SVGID_00000026159323352471899220000011087203008429745592_">
						<use xlink:href="#SVGID_00000080919615593716281210000004420965565871587484_"  style="overflow:visible;"/>
					</clipPath>
					<polygon style="clip-path:url(#SVGID_00000026159323352471899220000011087203008429745592_);fill:#0256A4;" points="189,175.7 
						178.6,182.4 174.7,176.7 186.6,168.9 196.9,168.9 196.9,197.2 189,197.2 					"/>
				</g>
				<g>
					<defs>
						<rect id="SVGID_00000093894164673568805560000016219153454230732461_" y="-60.1" width="595" height="841"/>
					</defs>
					<clipPath id="SVGID_00000165227879106747427560000007939155658531889820_">
						<use xlink:href="#SVGID_00000093894164673568805560000016219153454230732461_"  style="overflow:visible;"/>
					</clipPath>
					<path style="clip-path:url(#SVGID_00000165227879106747427560000007939155658531889820_);fill:#00529C;" d="M230.4,179.9
						c2.5,0,3.3-1,3.3-2.6c0-2-1.2-2.6-2.6-2.6h-11.2c-1.5,0-2.6,0.6-2.6,2.6c0,1.6,0.8,2.6,3.3,2.6H230.4z M230.6,191.4
						c2.9,0,3.3-0.9,3.3-2.8c0-2.2-0.4-2.8-3.8-2.8H221c-3.4,0-3.8,0.6-3.8,2.8c0,2,0.4,2.8,3.3,2.8H230.6z M209,188.2
						c0-3,1.2-4.7,5-5.2v-0.1c-2.5-0.4-4.8-1.9-4.8-5.9v-1.6c0-6.3,2.7-6.7,13.8-6.7h8.5c7.2,0,10.4,1.4,10.4,6.7v1.8
						c0,3-0.7,5.1-4.7,5.6v0.1c2.9,0.8,4.9,2.1,4.9,6v2.3c0,4.7-3,6.4-8.2,6.4h-16.2c-6,0-8.7-2.3-8.7-6.8V188.2z"/>
				</g>
				<g>
					<defs>
						<rect id="SVGID_00000080902843895426788200000016245677724728463768_" y="-60.1" width="595" height="841"/>
					</defs>
					<clipPath id="SVGID_00000171678311746611668460000001301494730770472605_">
						<use xlink:href="#SVGID_00000080902843895426788200000016245677724728463768_"  style="overflow:visible;"/>
					</clipPath>
					<path style="clip-path:url(#SVGID_00000171678311746611668460000001301494730770472605_);fill:#0256A4;" d="M359.4,180.9
						c3.5,0,4.4-0.7,4.4-3.1c0-2.4-0.9-3.2-4.2-3.2h-7.8c-3.3,0-4.2,0.7-4.2,3.2c0,2.4,0.9,3.1,4.4,3.1H359.4z M339.4,189.1h7.9
						c0,1.8,0.9,2.3,3.4,2.3h8.9c2.9,0,4.2-1.2,4.2-3.4v-3.4c-1.4,1.4-3,2.1-6.4,2.1h-8c-8.3,0-9.8-2.8-9.8-7.9v-2.5
						c0-6.9,3.4-7.8,10-7.8h12.2c6.7,0,10,2.6,10,9.9v7.9c0,8.6-3.1,11.1-12.3,11.1h-10.4c-6.5,0-9.8-1.6-9.8-6.4L339.4,189.1
						L339.4,189.1z"/>
				</g>
				<g>
					<defs>
						<rect id="SVGID_00000067920385962387184240000010963595620159091610_" y="-60.1" width="595" height="841"/>
					</defs>
					<clipPath id="SVGID_00000119086473546062323050000010552198723746014600_">
						<use xlink:href="#SVGID_00000067920385962387184240000010963595620159091610_"  style="overflow:visible;"/>
					</clipPath>
					<path style="clip-path:url(#SVGID_00000119086473546062323050000010552198723746014600_);fill:#0256A4;" d="M378.5,168.9h30.6
						v6.1h-23.1v4.9c1.1-1.1,2.2-1.8,5.3-1.8h9.7c6,0,9.4,2,9.4,8.2v1.8c0,8.6-4.4,9.3-13.5,9.3h-6.7c-8.5,0-12.6-0.9-12.6-7.5v-1.6
						h7.9c0,2.4,0.7,3,4.6,3h8.1c4,0,4.4-1.1,4.4-3.8c0-3.2-1-3.6-5-3.6h-9.1c-1.3,0-2.2,0.6-2.5,1.9h-7.4V168.9z"/>
				</g>
			</g>
		</g>
	</g>
	<g>
		<g>
			<defs>
				<rect id="SVGID_00000064322181459164859230000010794566296481114542_" x="151.8" y="181.7" width="279.1" height="257.3"/>
			</defs>
			<clipPath id="SVGID_00000026148205316427475810000003962329357167837609_">
				<use xlink:href="#SVGID_00000064322181459164859230000010794566296481114542_"  style="overflow:visible;"/>
			</clipPath>
			
				<path style="clip-path:url(#SVGID_00000026148205316427475810000003962329357167837609_);fill-rule:evenodd;clip-rule:evenodd;fill:#0055A4;" d="
				M430.9,326.7c-1.1-12.5-11.9-14-11.9-14c-21.2-5.2-37.4-30.5-37.4-30.5c-6.7-15.8-22-13-22-13c-11,1.5-21.2,22-21.2,22
				c-15.8,19.9-20.3,15.1-20.3,15.1c-14,1.3-9.7-12.3-9.7-12.3c2.4-9.3,20.3-19,20.3-19c11.7-6.5,14-14.7,14-14.7
				c3.7-8.9,0.2-13.8,0.2-13.8c-0.6-4.1-12.7-15.5-12.7-15.5c-16.4-10.3-21.8-19.2-23.5-23.7c1.2,4.6,2.9,11.1-0.2-0.6
				c-0.4-1-0.5-1.7-0.6-2.2c-0.2-0.8-0.5-1.7-0.7-2.7c-6.5-24.4-16.4-19.9-16.4-19.9c-10.6,0.2-15.8,16-15.8,16
				c-7.7,15-17.7,26.6-29.1,37.2c-11.4,10.6-2.2,2.1-2.2,2.1c-11,11-9.1,21-9.1,21c0.4,2.8,3.9,15.1,17.7,20.7
				c0.6,0.2,1.1,0.4,1.6,0.7c12.4,5.5,14.4,12.1,14.4,12.1c5.8,19.4-11.2,16.2-11.2,16.2c-8.9-1.5-14.5-18.8-14.5-18.8
				c-4.8-18.1-18.8-16.8-18.8-16.8c-13.2-1.7-23.8,13.8-23.8,13.8c-8.2,18.4-23.8,23.8-23.8,23.8c-28.3,9.3-21.8,23.3-22,24.2
				c0.6,12.5,9.9,16.2,24.2,20.7c1.3,0.4,2.6,0.9,3.9,1.6c13.1,6.5,26.2,23.7,26.2,23.7c12.7,13.2,16.8,9.7,16.8,9.7
				c14.7-0.9,22.9-22.7,22.9-22.7c9.9-24.4,25.1-16.8,25.1-16.8c17.5,2.8,11.9,37.4,11.9,37.4c-3,32.4-7.6,38.9-7.6,38.9
				c-2.2,11.9,0,11,0,11c3.7,4.1,8-1.7,8-1.7c9.7-6.5,14.9-6.7,14.9-6.7c10.4-0.6,7.6-6.3,7.6-6.3l-3.9-21.4c0-3-4.3-11.9-3.5-34.3
				s18.8-19.2,18.8-19.2c14.5,2.8,21.6,20.5,21.6,20.5c4.1,9.1,9.1,13.4,9.1,13.4c11.4,8.6,22.7,1.9,22.7,1.9
				c7.1-3.5,15.6-16.2,15.6-16.2c8.4-18.8,32.8-25.9,32.8-25.9C431.2,335.8,430.9,326.7,430.9,326.7 M291.4,330.8l-2.8,6l-3-6.3
				l-5.4-2.4l5.8-3.7l3.5-6l2.2,6l6.3,2.8L291.4,330.8z"/>
		</g>
	</g>
	<g>
		<g>
			<defs>
				<rect id="SVGID_00000005946426867786734820000000080652387070932909_" y="-60.1" width="595" height="841"/>
			</defs>
			<clipPath id="SVGID_00000092420524439485529620000002081977502572322966_">
				<use xlink:href="#SVGID_00000005946426867786734820000000080652387070932909_"  style="overflow:visible;"/>
			</clipPath>
			<g style="clip-path:url(#SVGID_00000092420524439485529620000002081977502572322966_);">
				<g class="st28">
					<path class="st29" d="M283.6,264v-39.1c0-2,0.5-3.6,1.4-4.6s2.1-1.5,3.6-1.5c1.5,0,2.7,0.5,3.7,1.5c0.9,1,1.4,2.5,1.4,4.6V264
						c0,2.1-0.5,3.6-1.4,4.6c-0.9,1-2.2,1.5-3.7,1.5c-1.4,0-2.6-0.5-3.6-1.5C284.1,267.6,283.6,266.1,283.6,264z"/>
				</g>
			</g>
		</g>
		<g>
			<defs>
				<rect id="SVGID_00000021084289017607894960000013795894231622747546_" y="-60.1" width="595" height="841"/>
			</defs>
			<clipPath id="SVGID_00000022545731595075174190000002855472733753758616_">
				<use xlink:href="#SVGID_00000021084289017607894960000013795894231622747546_"  style="overflow:visible;"/>
			</clipPath>
			<g style="clip-path:url(#SVGID_00000022545731595075174190000002855472733753758616_);">
				<g class="st28">
					<path class="st29" d="M205.5,311.1v17.4l19.8-20.6c0.9-1,1.8-1.7,2.4-2.2c0.7-0.5,1.6-0.7,2.7-0.7c1.4,0,2.6,0.4,3.5,1.3
						c0.9,0.8,1.3,1.9,1.3,3.1c0,1.5-0.8,2.9-2.3,4.4l-12.2,11.6l14.1,20.2c1,1.4,1.7,2.6,2.2,3.7c0.5,1,0.7,2.1,0.7,3.1
						c0,1.1-0.4,2.1-1.3,2.9c-0.9,0.8-2.1,1.2-3.5,1.2c-1.4,0-2.5-0.3-3.4-0.9s-1.6-1.4-2.2-2.4s-1.2-1.9-1.6-2.7l-11.9-18.3
						l-8.2,7.9v10.3c0,2.1-0.5,3.6-1.4,4.6s-2.2,1.5-3.7,1.5c-0.9,0-1.7-0.2-2.5-0.7c-0.8-0.5-1.4-1.1-1.8-1.8
						c-0.3-0.6-0.5-1.4-0.6-2.2c-0.1-0.8-0.1-2-0.1-3.6v-36.9c0-2,0.4-3.6,1.3-4.6c0.9-1,2.1-1.5,3.6-1.5c1.5,0,2.7,0.5,3.7,1.5
						C205,307.5,205.5,309,205.5,311.1z"/>
				</g>
			</g>
		</g>
		<g>
			<defs>
				<rect id="SVGID_00000032625192841433485160000013193868685286378936_" y="-60.1" width="595" height="841"/>
			</defs>
			<clipPath id="SVGID_00000088811978793213242110000014445322645006186904_">
				<use xlink:href="#SVGID_00000032625192841433485160000013193868685286378936_"  style="overflow:visible;"/>
			</clipPath>
			<g style="clip-path:url(#SVGID_00000088811978793213242110000014445322645006186904_);">
				<g class="st28">
					<path class="st29" d="M381.7,312.5h-19.8v12.7h16.6c1.5,0,2.7,0.3,3.4,1c0.8,0.7,1.1,1.6,1.1,2.8c0,1.2-0.4,2.1-1.2,2.7
						s-1.9,1-3.4,1h-16.6v16.4c0,2.1-0.5,3.6-1.4,4.6c-0.9,1-2.1,1.5-3.6,1.5c-1.5,0-2.7-0.5-3.6-1.5c-0.9-1-1.4-2.6-1.4-4.6v-38.2
						c0-1.4,0.2-2.6,0.6-3.5c0.4-0.9,1.1-1.6,2-2c0.9-0.4,2.1-0.6,3.5-0.6h23.7c1.6,0,2.8,0.4,3.6,1.1s1.2,1.6,1.2,2.8
						c0,1.2-0.4,2.1-1.2,2.8C384.5,312.1,383.3,312.5,381.7,312.5z"/>
				</g>
			</g>
		</g>
		<g>
			<defs>
				<rect id="SVGID_00000131353262095609108280000010358955279647247518_" y="-60.1" width="595" height="841"/>
			</defs>
			<clipPath id="SVGID_00000158716043302493179730000005655361233317569450_">
				<use xlink:href="#SVGID_00000131353262095609108280000010358955279647247518_"  style="overflow:visible;"/>
			</clipPath>
			<g style="clip-path:url(#SVGID_00000158716043302493179730000005655361233317569450_);">
				<g class="st28">
					<path class="st33" d="M207.1,470.1h-12.6v8.1h10.5c1,0,1.7,0.2,2.2,0.7c0.5,0.4,0.7,1,0.7,1.8s-0.2,1.3-0.7,1.7
						c-0.5,0.4-1.2,0.6-2.2,0.6h-10.5v10.4c0,1.3-0.3,2.3-0.9,2.9c-0.6,0.6-1.4,1-2.3,1c-0.9,0-1.7-0.3-2.3-1
						c-0.6-0.6-0.9-1.6-0.9-2.9v-24.2c0-0.9,0.1-1.7,0.4-2.2c0.3-0.6,0.7-1,1.3-1.3c0.6-0.3,1.3-0.4,2.2-0.4h15c1,0,1.8,0.2,2.3,0.7
						s0.7,1,0.7,1.8c0,0.7-0.2,1.3-0.7,1.8S208.2,470.1,207.1,470.1z"/>
					<path class="st33" d="M228.8,464.7c3.3,0,6.1,0.7,8.4,2c2.3,1.3,4.1,3.2,5.3,5.7c1.2,2.4,1.8,5.3,1.8,8.6c0,2.4-0.3,4.6-1,6.6
						c-0.7,2-1.6,3.7-3,5.2c-1.3,1.5-2.9,2.6-4.9,3.4c-1.9,0.8-4.1,1.2-6.6,1.2c-2.5,0-4.7-0.4-6.6-1.2c-1.9-0.8-3.6-1.9-4.9-3.4
						c-1.3-1.4-2.3-3.2-3-5.2c-0.7-2-1-4.2-1-6.6c0-2.4,0.3-4.6,1-6.7c0.7-2,1.7-3.7,3-5.2c1.3-1.4,2.9-2.5,4.8-3.3
						S226.3,464.7,228.8,464.7z M237.8,480.9c0-2.3-0.4-4.3-1.1-6c-0.7-1.7-1.8-3-3.2-3.8c-1.4-0.9-3-1.3-4.8-1.3
						c-1.3,0-2.5,0.2-3.5,0.7c-1.1,0.5-2,1.2-2.8,2.1c-0.8,0.9-1.4,2.1-1.8,3.5c-0.5,1.4-0.7,3-0.7,4.8c0,1.8,0.2,3.4,0.7,4.9
						c0.5,1.4,1.1,2.6,1.9,3.6c0.8,1,1.8,1.7,2.8,2.1c1.1,0.5,2.2,0.7,3.5,0.7c1.6,0,3.1-0.4,4.5-1.2c1.4-0.8,2.5-2.1,3.3-3.8
						C237.4,485.5,237.8,483.4,237.8,480.9z"/>
					<path class="st33" d="M253.7,465.2h8.3c2.2,0,4,0.2,5.6,0.6c1.5,0.4,3,1.2,4.2,2.3c3.3,2.8,4.9,7.1,4.9,12.8
						c0,1.9-0.2,3.6-0.5,5.2c-0.3,1.6-0.8,3-1.5,4.2c-0.7,1.3-1.6,2.4-2.6,3.4c-0.8,0.8-1.8,1.4-2.8,1.8c-1,0.5-2.1,0.8-3.2,1
						c-1.2,0.2-2.5,0.3-3.9,0.3h-8.3c-1.2,0-2-0.2-2.6-0.5c-0.6-0.4-1-0.8-1.1-1.5c-0.2-0.6-0.3-1.5-0.3-2.5v-23.1
						c0-1.4,0.3-2.4,0.9-3C251.3,465.5,252.3,465.2,253.7,465.2z M256.2,470.3v21.4h4.8c1.1,0,1.9,0,2.5-0.1
						c0.6-0.1,1.2-0.2,1.9-0.4c0.6-0.2,1.2-0.6,1.7-1c2.1-1.8,3.2-4.9,3.2-9.3c0-3.1-0.5-5.4-1.4-7c-0.9-1.5-2.1-2.5-3.5-3
						c-1.4-0.4-3-0.6-5-0.6H256.2z"/>
					<path class="st33" d="M295.8,496.7h-9.6c-1.4,0-2.4-0.3-3-0.9c-0.6-0.6-0.9-1.6-0.9-3v-23.7c0-1.4,0.3-2.4,0.9-3
						c0.6-0.6,1.6-0.9,3-0.9h10.2c1.5,0,2.8,0.1,3.9,0.3c1.1,0.2,2.1,0.5,3,1.1c0.7,0.4,1.4,1,2,1.7c0.6,0.7,1,1.4,1.3,2.3
						c0.3,0.8,0.5,1.7,0.5,2.6c0,3.2-1.6,5.5-4.7,6.9c4.1,1.3,6.2,3.9,6.2,7.7c0,1.8-0.5,3.3-1.4,4.8c-0.9,1.4-2.1,2.5-3.7,3.1
						c-1,0.4-2.1,0.7-3.3,0.8C298.9,496.6,297.4,496.7,295.8,496.7z M288.6,470v8.1h5.8c1.6,0,2.8-0.2,3.7-0.5s1.5-0.9,2-1.7
						c0.4-0.6,0.5-1.3,0.5-2c0-1.6-0.6-2.6-1.7-3.2c-1.1-0.5-2.9-0.8-5.2-0.8H288.6z M295.3,482.7h-6.6v9.2h6.9
						c4.3,0,6.5-1.6,6.5-4.7c0-1.6-0.6-2.7-1.7-3.5C299.2,483.1,297.5,482.7,295.3,482.7z"/>
					<path class="st33" d="M327.8,464.7c3.3,0,6.1,0.7,8.4,2c2.3,1.3,4.1,3.2,5.3,5.7c1.2,2.4,1.8,5.3,1.8,8.6c0,2.4-0.3,4.6-1,6.6
						c-0.7,2-1.6,3.7-3,5.2c-1.3,1.5-2.9,2.6-4.9,3.4c-1.9,0.8-4.1,1.2-6.6,1.2c-2.5,0-4.7-0.4-6.6-1.2c-1.9-0.8-3.6-1.9-4.9-3.4
						c-1.3-1.4-2.3-3.2-3-5.2c-0.7-2-1-4.2-1-6.6c0-2.4,0.3-4.6,1-6.7c0.7-2,1.7-3.7,3-5.2c1.3-1.4,2.9-2.5,4.8-3.3
						S325.4,464.7,327.8,464.7z M336.9,480.9c0-2.3-0.4-4.3-1.1-6c-0.7-1.7-1.8-3-3.2-3.8c-1.4-0.9-3-1.3-4.8-1.3
						c-1.3,0-2.5,0.2-3.5,0.7c-1.1,0.5-2,1.2-2.8,2.1c-0.8,0.9-1.4,2.1-1.8,3.5c-0.5,1.4-0.7,3-0.7,4.8c0,1.8,0.2,3.4,0.7,4.9
						c0.5,1.4,1.1,2.6,1.9,3.6c0.8,1,1.8,1.7,2.8,2.1c1.1,0.5,2.2,0.7,3.5,0.7c1.6,0,3.1-0.4,4.5-1.2c1.4-0.8,2.5-2.1,3.3-3.8
						C336.5,485.5,336.9,483.4,336.9,480.9z"/>
					<path class="st33" d="M355.1,468.5v22.9H368c1,0,1.8,0.3,2.4,0.8c0.6,0.5,0.8,1.1,0.8,1.9c0,0.8-0.3,1.4-0.8,1.9
						c-0.5,0.5-1.3,0.7-2.4,0.7h-15.4c-1.4,0-2.4-0.3-3-0.9c-0.6-0.6-0.9-1.6-0.9-3v-24.3c0-1.3,0.3-2.3,0.9-2.9s1.3-1,2.3-1
						c1,0,1.7,0.3,2.3,1C354.8,466.3,355.1,467.2,355.1,468.5z"/>
					<path class="st33" d="M379.3,465.2h8.3c2.2,0,4,0.2,5.6,0.6c1.5,0.4,2.9,1.2,4.2,2.3c3.3,2.8,4.9,7.1,4.9,12.8
						c0,1.9-0.2,3.6-0.5,5.2c-0.3,1.6-0.8,3-1.5,4.2c-0.7,1.3-1.6,2.4-2.6,3.4c-0.8,0.8-1.8,1.4-2.8,1.8c-1,0.5-2.1,0.8-3.2,1
						c-1.2,0.2-2.5,0.3-3.9,0.3h-8.3c-1.2,0-2-0.2-2.6-0.5c-0.6-0.4-1-0.8-1.2-1.5c-0.2-0.6-0.3-1.5-0.3-2.5v-23.1
						c0-1.4,0.3-2.4,0.9-3C377,465.5,378,465.2,379.3,465.2z M381.8,470.3v21.4h4.8c1.1,0,1.9,0,2.5-0.1c0.6-0.1,1.2-0.2,1.9-0.4
						c0.6-0.2,1.2-0.6,1.7-1c2.1-1.8,3.2-4.9,3.2-9.3c0-3.1-0.5-5.4-1.4-7c-0.9-1.5-2.1-2.5-3.5-3c-1.4-0.4-3-0.6-5-0.6H381.8z"/>
				</g>
			</g>
		</g>
	</g>
</g>
</svg>
